<svg xmlns="http://www.w3.org/2000/svg" xmlns:xlink="http://www.w3.org/1999/xlink" width="480" zoomAndPan="magnify" viewBox="0 0 360 359.999987" height="480" preserveAspectRatio="xMidYMid meet" version="1.0"><defs><g/><clipPath id="4a374ebc26"><path d="M 217.542969 80.566406 L 317.210938 80.566406 L 317.210938 174.054688 L 217.542969 174.054688 Z M 217.542969 80.566406 " clip-rule="nonzero"/></clipPath><clipPath id="8ae1f0f322"><path d="M 133.125 320.117188 L 182.585938 320.117188 L 182.585938 359.980469 L 133.125 359.980469 Z M 133.125 320.117188 " clip-rule="nonzero"/></clipPath><clipPath id="0a7ccf5ba7"><path d="M 0.160156 1 L 6 1 L 6 17 L 0.160156 17 Z M 0.160156 1 " clip-rule="nonzero"/></clipPath><clipPath id="2f26fc75aa"><path d="M 91 1 L 103.601562 1 L 103.601562 17 L 91 17 Z M 91 1 " clip-rule="nonzero"/></clipPath><clipPath id="25d879b523"><rect x="0" width="104" y="0" height="22"/></clipPath></defs><path fill="#47464b" d="M 179.753906 332.625 C 169.863281 264.199219 179.644531 110.769531 179.746094 109.226562 L 181.96875 109.371094 C 181.871094 110.910156 172.105469 264.109375 181.960938 332.308594 L 179.753906 332.625 " fill-opacity="1" fill-rule="nonzero"/><path fill="#47464b" d="M 175.742188 347.71875 L 173.773438 346.671875 C 189.054688 317.902344 193.355469 276.628906 194.273438 247.074219 C 195.269531 214.988281 192.597656 189.398438 192.570312 189.140625 L 194.789062 188.90625 C 194.816406 189.160156 197.5 214.878906 196.503906 247.113281 C 195.917969 266.058594 194.191406 283.523438 191.378906 299.023438 C 187.851562 318.441406 182.589844 334.824219 175.742188 347.71875 " fill-opacity="1" fill-rule="nonzero"/><path fill="#47464b" d="M 188.6875 344.242188 C 179.363281 340.003906 174.742188 312.5625 166.351562 262.738281 C 162.921875 242.367188 159.03125 219.273438 154 192.925781 C 145.210938 146.90625 131.777344 114.660156 122.050781 95.707031 C 111.542969 75.230469 103.039062 65.527344 102.953125 65.429688 L 104.625 63.949219 C 104.976562 64.351562 113.402344 73.964844 124.035156 94.691406 C 133.828125 113.769531 147.355469 146.226562 156.191406 192.507812 C 161.226562 218.882812 165.117188 241.984375 168.550781 262.367188 C 176.265625 308.191406 181.367188 338.464844 189.609375 342.214844 L 188.6875 344.242188 " fill-opacity="1" fill-rule="nonzero"/><path fill="#47464b" d="M 186.300781 347.195312 L 184.070312 347.195312 C 184.074219 304.835938 124.957031 143.039062 124.359375 141.410156 L 126.453125 140.644531 C 126.601562 141.050781 141.574219 181.972656 156.355469 227.625 C 176.226562 288.996094 186.300781 329.222656 186.300781 347.195312 " fill-opacity="1" fill-rule="nonzero"/><path fill="#47464b" d="M 179.753906 349.472656 L 177.523438 349.445312 C 177.839844 322.621094 182.09375 291.964844 190.171875 258.332031 C 196.628906 231.449219 205.527344 202.613281 216.621094 172.617188 C 235.507812 121.558594 254.476562 84.347656 254.667969 83.976562 L 256.652344 84.996094 C 256.460938 85.363281 237.542969 122.476562 218.703125 173.417969 C 201.328125 220.398438 180.464844 289.074219 179.753906 349.472656 " fill-opacity="1" fill-rule="nonzero"/><path fill="#47464b" d="M 171.515625 347.542969 L 169.398438 346.84375 C 190.136719 284.066406 247.449219 162.914062 248.023438 161.695312 L 250.039062 162.652344 C 249.464844 163.867188 192.210938 284.898438 171.515625 347.542969 " fill-opacity="1" fill-rule="nonzero"/><path fill="#47464b" d="M 199.742188 348.359375 C 197.078125 348.359375 192.554688 344.84375 182.414062 324.671875 C 175.972656 311.855469 167.996094 293.761719 158.707031 270.898438 C 142.90625 231.996094 128.578125 192.203125 128.4375 191.804688 L 130.535156 191.050781 C 130.675781 191.449219 144.988281 231.203125 160.777344 270.066406 C 170.042969 292.871094 177.992188 310.90625 184.40625 323.671875 C 195.277344 345.296875 199.046875 346.3125 199.941406 346.105469 L 200.441406 348.28125 C 200.222656 348.332031 199.992188 348.359375 199.742188 348.359375 " fill-opacity="1" fill-rule="nonzero"/><path fill="#fbb0be" d="M 266.277344 101.222656 C 263.839844 102.035156 261.230469 102.753906 258.449219 103.367188 C 249.273438 95.863281 244.066406 86.644531 241.886719 78.253906 C 238.234375 64.210938 243.074219 52.496094 252.03125 55.085938 C 266.332031 59.214844 266.566406 75.257812 266.566406 75.257812 C 266.566406 75.257812 273.746094 61.359375 287.546875 65.34375 C 300.277344 69.019531 295.265625 91.566406 266.277344 101.222656 " fill-opacity="1" fill-rule="nonzero"/><path fill="#fb899a" d="M 249.21875 80.882812 C 249.214844 80.882812 249.210938 80.878906 249.210938 80.878906 C 248.324219 80.40625 247.402344 79.957031 246.4375 79.539062 C 246.375 79.511719 246.316406 79.484375 246.253906 79.460938 C 245.941406 78.433594 245.875 77.78125 246.117188 77.644531 C 246.148438 77.628906 246.183594 77.621094 246.222656 77.621094 C 246.703125 77.621094 247.816406 78.867188 249.21875 80.882812 " fill-opacity="1" fill-rule="nonzero"/><path fill="#fb899a" d="M 244.398438 67.742188 C 244.367188 67.742188 244.332031 67.738281 244.300781 67.730469 C 243.621094 67.53125 243.675781 65.289062 244.417969 62.710938 C 245.128906 60.257812 246.207031 58.390625 246.894531 58.390625 C 246.929688 58.390625 246.960938 58.394531 246.992188 58.40625 C 247.671875 58.601562 247.621094 60.847656 246.875 63.421875 C 246.167969 65.875 245.085938 67.742188 244.398438 67.742188 " fill-opacity="1" fill-rule="nonzero"/><path fill="#fb899a" d="M 248.65625 57.910156 C 248.59375 57.910156 248.535156 57.902344 248.476562 57.882812 C 248.035156 57.757812 247.816406 57.1875 247.980469 56.609375 C 248.125 56.113281 248.515625 55.769531 248.898438 55.769531 C 248.960938 55.769531 249.019531 55.777344 249.078125 55.796875 C 249.515625 55.921875 249.738281 56.492188 249.570312 57.070312 C 249.425781 57.566406 249.039062 57.910156 248.65625 57.910156 " fill-opacity="1" fill-rule="nonzero"/><path fill="#fbb0be" d="M 180.398438 117.09375 C 171.054688 112.878906 163.050781 107.601562 156.34375 101.75 C 143.492188 90.542969 135.398438 77.230469 131.75 65.261719 C 126.175781 46.976562 130.984375 31.824219 145.074219 32.101562 C 173.199219 32.652344 181.472656 61.820312 181.472656 61.820312 C 181.472656 61.820312 187.789062 32.933594 214.925781 33.464844 C 242.0625 33.996094 241.980469 85.207031 180.398438 117.09375 " fill-opacity="1" fill-rule="nonzero"/><path fill="#fb899a" d="M 176.113281 108.695312 C 174.175781 108.695312 166.828125 102.613281 158.863281 94.328125 C 158.035156 93.46875 157.234375 92.621094 156.457031 91.78125 C 156.210938 88.460938 155.664062 85.386719 154.871094 82.589844 C 157.332031 84.804688 160.085938 87.472656 162.921875 90.421875 C 171.527344 99.367188 177.589844 107.496094 176.46875 108.574219 C 176.386719 108.65625 176.265625 108.695312 176.113281 108.695312 " fill-opacity="1" fill-rule="nonzero"/><path fill="#fb899a" d="M 137.164062 58.960938 C 137.160156 58.960938 137.15625 58.960938 137.152344 58.960938 C 135.816406 58.933594 134.816406 54.808594 134.914062 49.746094 C 135.011719 44.699219 136.167969 40.625 137.496094 40.625 C 137.5 40.625 137.503906 40.625 137.507812 40.625 C 138.84375 40.652344 139.84375 44.777344 139.746094 49.839844 C 139.648438 54.886719 138.492188 58.960938 137.164062 58.960938 " fill-opacity="1" fill-rule="nonzero"/><path fill="#fb899a" d="M 139.984375 38.949219 C 139.972656 38.949219 139.964844 38.949219 139.957031 38.949219 C 139.09375 38.933594 138.414062 38 138.4375 36.863281 C 138.457031 35.742188 139.164062 34.84375 140.015625 34.84375 C 140.023438 34.84375 140.03125 34.84375 140.039062 34.84375 C 140.902344 34.859375 141.582031 35.792969 141.5625 36.925781 C 141.539062 38.046875 140.835938 38.949219 139.984375 38.949219 " fill-opacity="1" fill-rule="nonzero"/><path fill="#fb899a" d="M 156.34375 101.75 C 155.613281 101.113281 154.898438 100.472656 154.199219 99.820312 C 154.265625 95.546875 153.875 91.597656 153.101562 88.03125 C 154.144531 89.238281 155.269531 90.492188 156.457031 91.78125 C 156.695312 94.902344 156.667969 98.234375 156.34375 101.75 M 154.871094 82.589844 C 152.808594 80.734375 150.953125 79.199219 149.433594 78.082031 C 145.675781 71.417969 140.023438 67.59375 133.652344 67.59375 C 133.277344 67.59375 132.902344 67.605469 132.527344 67.632812 C 132.246094 66.835938 131.988281 66.046875 131.75 65.261719 C 133.214844 64.878906 134.65625 64.691406 136.0625 64.691406 C 144.511719 64.691406 151.699219 71.417969 154.871094 82.589844 " fill-opacity="1" fill-rule="nonzero"/><path fill="#fb6b7d" d="M 156.457031 91.78125 C 155.269531 90.492188 154.144531 89.238281 153.101562 88.03125 C 152.277344 84.253906 151.027344 80.914062 149.433594 78.082031 C 150.953125 79.199219 152.808594 80.734375 154.871094 82.589844 C 155.664062 85.386719 156.210938 88.460938 156.457031 91.78125 " fill-opacity="1" fill-rule="nonzero"/><path fill="#fbb0be" d="M 142.828125 139.140625 C 139.273438 145.75 134.792969 152.589844 129.253906 159.546875 C 123.445312 159.53125 117.894531 159.027344 112.621094 158.121094 C 112.101562 158.03125 111.578125 157.933594 111.058594 157.835938 C 103.582031 156.425781 96.6875 154.199219 90.464844 151.414062 C 56.71875 136.316406 42.753906 104.707031 62.285156 96.414062 C 88.175781 85.417969 107.648438 108.660156 107.648438 108.660156 C 107.648438 108.660156 101.605469 79.714844 126.589844 69.105469 C 148.367188 59.855469 167.015625 94.21875 142.828125 139.140625 " fill-opacity="1" fill-rule="nonzero"/><path fill="#fb899a" d="M 111.457031 151.621094 C 108.164062 150.582031 104.335938 149.203125 100.296875 147.570312 C 88.789062 142.921875 79.933594 137.984375 80.515625 136.542969 C 80.625 136.273438 81.058594 136.144531 81.761719 136.144531 C 84.824219 136.144531 93.050781 138.566406 102.410156 142.347656 C 105.800781 143.71875 108.960938 145.113281 111.71875 146.4375 C 111.554688 147.871094 111.511719 149.257812 111.542969 150.5625 C 111.507812 150.917969 111.480469 151.273438 111.457031 151.621094 " fill-opacity="1" fill-rule="nonzero"/><path fill="#fb899a" d="M 65.757812 124.222656 C 64.445312 124.222656 62.0625 121.011719 60.222656 116.671875 C 58.242188 112.011719 57.632812 107.808594 58.863281 107.289062 C 58.945312 107.25 59.039062 107.234375 59.132812 107.234375 C 60.445312 107.234375 62.828125 110.441406 64.671875 114.78125 C 66.648438 119.445312 67.257812 123.648438 66.03125 124.167969 C 65.945312 124.203125 65.855469 124.222656 65.757812 124.222656 " fill-opacity="1" fill-rule="nonzero"/><path fill="#fb899a" d="M 59.929688 104.851562 C 59.25 104.851562 58.527344 104.320312 58.171875 103.476562 C 57.726562 102.433594 58.011719 101.3125 58.808594 100.976562 C 58.960938 100.910156 59.125 100.882812 59.289062 100.882812 C 59.972656 100.882812 60.691406 101.414062 61.046875 102.253906 C 61.492188 103.300781 61.207031 104.417969 60.414062 104.757812 C 60.257812 104.824219 60.09375 104.851562 59.929688 104.851562 " fill-opacity="1" fill-rule="nonzero"/><path fill="#fb899a" d="M 262.242188 102.4375 C 260.648438 98.253906 258.257812 93.980469 254.683594 90.199219 C 254.21875 89.28125 253.710938 88.320312 253.167969 87.339844 C 251.78125 84.824219 250.398438 82.578125 249.21875 80.882812 C 258.75 85.960938 263.722656 93.8125 266.277344 101.222656 C 264.980469 101.652344 263.636719 102.0625 262.242188 102.4375 M 248.652344 85.136719 C 246.96875 84.023438 245.117188 83 243.082031 82.097656 C 242.613281 80.800781 242.214844 79.519531 241.886719 78.253906 C 243.300781 78.425781 244.757812 78.824219 246.253906 79.460938 C 246.664062 80.8125 247.507812 82.816406 248.652344 85.136719 " fill-opacity="1" fill-rule="nonzero"/><path fill="#fb6b7d" d="M 254.683594 90.199219 C 252.960938 88.378906 250.964844 86.667969 248.652344 85.136719 C 247.507812 82.816406 246.664062 80.8125 246.253906 79.460938 C 246.316406 79.484375 246.375 79.511719 246.4375 79.539062 C 247.402344 79.957031 248.324219 80.40625 249.210938 80.878906 C 249.210938 80.878906 249.214844 80.882812 249.21875 80.882812 C 250.398438 82.578125 251.78125 84.824219 253.167969 87.339844 C 253.710938 88.320312 254.21875 89.28125 254.683594 90.199219 " fill-opacity="1" fill-rule="nonzero"/><path fill="#fbb0be" d="M 93.210938 33.867188 C 93.210938 33.867188 89.472656 13.859375 106.824219 6.921875 C 124.171875 -0.0117188 137.84375 32.484375 107.335938 69.207031 C 66.121094 68.214844 44.183594 31.964844 62.167969 24.777344 C 80.148438 17.585938 93.210938 33.867188 93.210938 33.867188 " fill-opacity="1" fill-rule="nonzero"/><path fill="#fb899a" d="M 101.777344 65.113281 C 99.734375 65.113281 94.046875 63.3125 87.582031 60.539062 C 79.726562 57.171875 73.703125 53.644531 74.125 52.660156 C 74.199219 52.488281 74.472656 52.402344 74.910156 52.402344 C 76.953125 52.402344 82.644531 54.203125 89.109375 56.972656 C 96.960938 60.339844 102.984375 63.871094 102.5625 64.855469 C 102.488281 65.027344 102.21875 65.113281 101.777344 65.113281 " fill-opacity="1" fill-rule="nonzero"/><path fill="#fb899a" d="M 64.160156 43.964844 C 63.261719 43.964844 61.660156 41.714844 60.449219 38.6875 C 59.15625 35.449219 58.800781 32.550781 59.652344 32.207031 C 59.707031 32.183594 59.765625 32.175781 59.828125 32.175781 C 60.730469 32.175781 62.328125 34.425781 63.539062 37.453125 C 64.832031 40.691406 65.191406 43.589844 64.339844 43.933594 C 64.28125 43.953125 64.222656 43.964844 64.160156 43.964844 " fill-opacity="1" fill-rule="nonzero"/><path fill="#fb899a" d="M 60.441406 30.546875 C 59.96875 30.546875 59.46875 30.167969 59.234375 29.578125 C 58.941406 28.851562 59.15625 28.085938 59.707031 27.863281 C 59.808594 27.824219 59.914062 27.804688 60.019531 27.804688 C 60.496094 27.804688 60.996094 28.1875 61.230469 28.777344 C 61.519531 29.503906 61.308594 30.269531 60.757812 30.488281 C 60.65625 30.53125 60.550781 30.546875 60.441406 30.546875 " fill-opacity="1" fill-rule="nonzero"/><g clip-path="url(#4a374ebc26)"><path fill="#fbb0be" d="M 243.046875 174.035156 C 239.851562 170.640625 236.996094 167.148438 234.464844 163.601562 C 226.605469 152.617188 221.804688 141.09375 219.425781 130.246094 C 212.691406 99.582031 225.285156 74.332031 242.847656 81.996094 C 268.632812 93.242188 265.144531 123.359375 265.144531 123.359375 C 265.144531 123.359375 282.003906 99.074219 306.886719 109.925781 C 331.761719 120.777344 312.136719 168.082031 243.046875 174.035156 " fill-opacity="1" fill-rule="nonzero"/></g><path fill="#fb899a" d="M 242.527344 164.6875 C 241.625 164.6875 239.746094 161.929688 237.492188 157.519531 C 238.574219 154.863281 239.304688 152.28125 239.699219 149.835938 C 242.503906 158.054688 243.804688 164.214844 242.667969 164.660156 C 242.625 164.679688 242.578125 164.6875 242.527344 164.6875 M 231.933594 130.984375 C 230.488281 130.34375 228.867188 129.9375 227.082031 129.796875 C 226.996094 129.789062 226.90625 129.78125 226.820312 129.777344 C 225.785156 125.746094 225.511719 123.105469 226.242188 122.820312 C 226.285156 122.804688 226.332031 122.792969 226.382812 122.792969 C 227.351562 122.792969 229.453125 125.984375 231.933594 130.984375 " fill-opacity="1" fill-rule="nonzero"/><path fill="#fb899a" d="M 225.550781 103.847656 C 225.449219 103.847656 225.355469 103.828125 225.269531 103.792969 C 224.046875 103.257812 224.695312 99.0625 226.71875 94.421875 C 228.601562 90.109375 231.007812 86.925781 232.320312 86.925781 C 232.421875 86.925781 232.515625 86.941406 232.601562 86.980469 C 233.824219 87.515625 233.175781 91.710938 231.152344 96.355469 C 229.269531 100.667969 226.863281 103.847656 225.550781 103.847656 " fill-opacity="1" fill-rule="nonzero"/><path fill="#fb899a" d="M 236 86.46875 C 235.832031 86.46875 235.664062 86.4375 235.503906 86.367188 C 234.714844 86.023438 234.4375 84.898438 234.890625 83.859375 C 235.253906 83.03125 235.976562 82.503906 236.652344 82.503906 C 236.824219 82.503906 236.988281 82.535156 237.148438 82.605469 C 237.9375 82.949219 238.210938 84.070312 237.757812 85.113281 C 237.394531 85.945312 236.679688 86.46875 236 86.46875 " fill-opacity="1" fill-rule="nonzero"/><path fill="#fb899a" d="M 234.464844 163.601562 C 234.203125 163.238281 233.949219 162.875 233.695312 162.511719 C 234.898438 160.105469 235.820312 157.746094 236.472656 155.472656 C 236.820312 156.1875 237.160156 156.871094 237.492188 157.519531 C 237.488281 157.523438 237.488281 157.523438 237.488281 157.523438 C 236.683594 159.511719 235.675781 161.542969 234.464844 163.601562 M 239.699219 149.835938 C 239.003906 147.804688 238.21875 145.644531 237.355469 143.417969 C 236.902344 140.964844 236.011719 138.796875 234.722656 137.007812 C 233.769531 134.808594 232.828125 132.777344 231.933594 130.984375 C 231.9375 130.984375 231.9375 130.984375 231.9375 130.984375 C 238.203125 133.757812 241.152344 140.90625 239.699219 149.835938 M 227.453125 132.089844 C 226.589844 131.867188 225.675781 131.714844 224.714844 131.636719 C 223.917969 131.574219 223.148438 131.542969 222.390625 131.542969 C 221.484375 131.542969 220.601562 131.585938 219.753906 131.671875 C 219.636719 131.195312 219.53125 130.722656 219.425781 130.246094 C 221.082031 129.894531 222.859375 129.703125 224.761719 129.703125 C 225.433594 129.703125 226.117188 129.726562 226.820312 129.777344 C 227.003906 130.503906 227.21875 131.277344 227.453125 132.089844 " fill-opacity="1" fill-rule="nonzero"/><path fill="#fb6b7d" d="M 237.492188 157.519531 C 237.160156 156.871094 236.820312 156.1875 236.472656 155.472656 C 237.746094 151.046875 238 146.9375 237.355469 143.417969 C 238.21875 145.644531 239.003906 147.804688 239.699219 149.835938 C 239.304688 152.28125 238.574219 154.863281 237.492188 157.519531 M 234.722656 137.007812 C 232.992188 134.605469 230.535156 132.894531 227.453125 132.089844 C 227.21875 131.277344 227.003906 130.503906 226.820312 129.777344 C 226.90625 129.78125 226.996094 129.789062 227.082031 129.796875 C 228.867188 129.9375 230.488281 130.34375 231.933594 130.984375 C 232.828125 132.777344 233.769531 134.808594 234.722656 137.007812 " fill-opacity="1" fill-rule="nonzero"/><path fill="#fbb0be" d="M 196.449219 152.824219 C 196.449219 152.824219 202.917969 129.902344 224.714844 131.636719 C 246.511719 133.371094 243.976562 174.550781 192.917969 197.222656 C 150.207031 174.78125 146.019531 125.378906 168.609375 127.175781 C 191.199219 128.972656 196.449219 152.824219 196.449219 152.824219 " fill-opacity="1" fill-rule="nonzero"/><path fill="#fb899a" d="M 189.917969 190.261719 C 188.421875 190.261719 182.757812 184.984375 176.699219 177.878906 C 170.210938 170.269531 165.726562 163.441406 166.679688 162.628906 C 166.742188 162.574219 166.828125 162.546875 166.933594 162.546875 C 168.429688 162.546875 174.089844 167.824219 180.152344 174.933594 C 186.640625 182.539062 191.125 189.371094 190.171875 190.183594 C 190.109375 190.234375 190.023438 190.261719 189.917969 190.261719 " fill-opacity="1" fill-rule="nonzero"/><path fill="#fb899a" d="M 160.984375 148.394531 C 160.972656 148.394531 160.957031 148.390625 160.945312 148.390625 C 159.871094 148.304688 159.265625 144.941406 159.589844 140.871094 C 159.910156 136.859375 161.015625 133.660156 162.074219 133.660156 C 162.085938 133.660156 162.101562 133.660156 162.113281 133.664062 C 163.1875 133.75 163.792969 137.113281 163.46875 141.183594 C 163.152344 145.195312 162.046875 148.394531 160.984375 148.394531 " fill-opacity="1" fill-rule="nonzero"/><path fill="#fb899a" d="M 164.242188 132.4375 C 164.21875 132.4375 164.191406 132.433594 164.167969 132.433594 C 163.472656 132.378906 162.96875 131.597656 163.042969 130.683594 C 163.109375 129.808594 163.691406 129.132812 164.351562 129.132812 C 164.375 129.132812 164.402344 129.132812 164.429688 129.136719 C 165.121094 129.191406 165.625 129.972656 165.554688 130.882812 C 165.484375 131.761719 164.90625 132.4375 164.242188 132.4375 " fill-opacity="1" fill-rule="nonzero"/><path fill="#fb899a" d="M 112.25 146.691406 C 112.078125 146.605469 111.898438 146.523438 111.71875 146.4375 C 112.394531 140.589844 115.09375 134 122.710938 129.5 C 124.820312 128.253906 126.96875 127.660156 129.0625 127.660156 C 134.636719 127.660156 139.816406 131.859375 142.828125 139.140625 C 142.75 139.296875 142.667969 139.445312 142.582031 139.597656 C 142.105469 140.476562 141.613281 141.359375 141.101562 142.242188 C 141.09375 142.257812 141.082031 142.277344 141.074219 142.292969 C 138.132812 135.859375 133.359375 132.171875 128.246094 132.171875 C 126.234375 132.171875 124.167969 132.742188 122.140625 133.941406 C 116.324219 137.378906 113.496094 142.085938 112.25 146.691406 " fill-opacity="1" fill-rule="nonzero"/><path fill="#fb6b7d" d="M 111.542969 150.5625 C 111.511719 149.257812 111.554688 147.871094 111.71875 146.4375 C 111.898438 146.523438 112.078125 146.605469 112.25 146.691406 C 111.898438 148 111.675781 149.300781 111.542969 150.5625 " fill-opacity="1" fill-rule="nonzero"/><path fill="#fbb0be" d="M 112.808594 162.652344 C 112.808594 162.652344 106.058594 143.449219 122.140625 133.941406 C 138.226562 124.433594 156.707031 154.457031 132.171875 195.414062 C 91.289062 200.738281 64.070312 168.269531 80.742188 158.414062 C 97.410156 148.5625 112.808594 162.652344 112.808594 162.652344 " fill-opacity="1" fill-rule="nonzero"/><path fill="#fb899a" d="M 125.070312 192.277344 C 122.476562 192.277344 117.246094 191.394531 111.324219 189.871094 C 103.050781 187.746094 96.558594 185.179688 96.824219 184.140625 C 96.898438 183.847656 97.511719 183.707031 98.542969 183.707031 C 101.136719 183.707031 106.367188 184.59375 112.289062 186.113281 C 120.566406 188.242188 127.058594 190.808594 126.789062 191.84375 C 126.714844 192.140625 126.101562 192.277344 125.070312 192.277344 " fill-opacity="1" fill-rule="nonzero"/><path fill="#fb899a" d="M 85.554688 177.078125 C 84.628906 177.078125 82.777344 175.140625 81.171875 172.425781 C 79.398438 169.425781 78.601562 166.613281 79.390625 166.144531 C 79.46875 166.101562 79.554688 166.078125 79.652344 166.078125 C 80.578125 166.078125 82.429688 168.015625 84.035156 170.730469 C 85.808594 173.734375 86.605469 176.546875 85.816406 177.011719 C 85.738281 177.058594 85.652344 177.078125 85.554688 177.078125 " fill-opacity="1" fill-rule="nonzero"/><path fill="#fb899a" d="M 79.777344 164.394531 C 79.34375 164.394531 78.867188 164.101562 78.574219 163.609375 C 78.179688 162.9375 78.269531 162.144531 78.78125 161.84375 C 78.917969 161.761719 79.070312 161.726562 79.226562 161.726562 C 79.660156 161.726562 80.136719 162.019531 80.429688 162.511719 C 80.824219 163.183594 80.730469 163.972656 80.21875 164.277344 C 80.085938 164.355469 79.933594 164.394531 79.777344 164.394531 " fill-opacity="1" fill-rule="nonzero"/><path fill="#f7dad9" d="M 180.839844 323.164062 C 180.839844 323.164062 177.984375 283.148438 153.726562 282.40625 C 148.035156 295.035156 145.820312 304.375 145.820312 304.375 C 145.820312 304.375 159.429688 285.4375 180.839844 323.164062 " fill-opacity="1" fill-rule="nonzero"/><path fill="#f7c2c1" d="M 181.410156 323.917969 C 181.410156 323.917969 139.644531 317.800781 145.820312 304.375 C 148.777344 299.488281 153.726562 299.734375 153.726562 299.734375 C 153.726562 299.734375 151.082031 316.089844 181.410156 323.917969 " fill-opacity="1" fill-rule="nonzero"/><path fill="#f7c2c1" d="M 180.730469 322.886719 C 180.730469 322.886719 222.910156 334.40625 225.855469 302.574219 C 223.0625 295.964844 215.976562 295.550781 215.976562 295.550781 C 215.976562 295.550781 222.941406 319.378906 180.730469 322.886719 " fill-opacity="1" fill-rule="nonzero"/><path fill="#f7dad9" d="M 180.730469 322.886719 C 180.730469 322.886719 198.816406 282.78125 214.839844 283.617188 C 226.171875 299.046875 225.855469 302.574219 225.855469 302.574219 C 225.855469 302.574219 217.871094 290.824219 180.730469 322.886719 " fill-opacity="1" fill-rule="nonzero"/><path fill="#f7c2c1" d="M 177.941406 322.164062 C 177.941406 322.164062 205.527344 324.777344 200.757812 350.382812 C 207.257812 347.425781 207.085938 338.75 207.085938 338.75 C 207.085938 338.75 214.257812 341.0625 213.132812 348.585938 C 219.035156 346.171875 221.53125 327.4375 177.941406 322.164062 " fill-opacity="1" fill-rule="nonzero"/><g clip-path="url(#8ae1f0f322)"><path fill="#f7c2c1" d="M 182.339844 323.523438 C 182.339844 323.523438 177.058594 316.433594 166.546875 323.410156 C 156.03125 330.382812 160.929688 344.582031 154.132812 349.261719 C 147.332031 353.941406 136.433594 348.152344 136.433594 348.152344 L 133.304688 358.328125 C 133.304688 358.328125 153.039062 366 158.3125 348.304688 C 163.585938 330.613281 169.21875 319.265625 182.339844 323.523438 " fill-opacity="1" fill-rule="nonzero"/></g><g transform="matrix(1, 0, 0, 1, 128, 313)"><g clip-path="url(#25d879b523)"><g clip-path="url(#0a7ccf5ba7)"><g fill="#ffffff" fill-opacity="1"><g transform="translate(0.508195, 16.419031)"><g><path d="M 0.15625 0 C 0.351562 -0.195312 0.488281 -0.4375 0.5625 -0.71875 C 0.644531 -1 0.6875 -1.359375 0.6875 -1.796875 L 0.6875 -13.375 C 0.6875 -13.8125 0.644531 -14.171875 0.5625 -14.453125 C 0.488281 -14.734375 0.351562 -14.972656 0.15625 -15.171875 L 5.234375 -15.171875 C 5.035156 -14.972656 4.894531 -14.734375 4.8125 -14.453125 C 4.738281 -14.171875 4.703125 -13.8125 4.703125 -13.375 L 4.703125 -1.796875 C 4.703125 -1.359375 4.738281 -1 4.8125 -0.71875 C 4.894531 -0.4375 5.035156 -0.195312 5.234375 0 Z M 0.15625 0 "/></g></g></g></g><g fill="#ffffff" fill-opacity="1"><g transform="translate(5.893025, 16.419031)"><g/></g></g><g fill="#ffffff" fill-opacity="1"><g transform="translate(11.202011, 16.419031)"><g><path d="M 8.234375 0 L 0.15625 0 C 0.351562 -0.195312 0.488281 -0.4375 0.5625 -0.71875 C 0.644531 -1 0.6875 -1.359375 0.6875 -1.796875 L 0.6875 -13.375 C 0.6875 -13.8125 0.644531 -14.171875 0.5625 -14.453125 C 0.488281 -14.734375 0.351562 -14.972656 0.15625 -15.171875 L 4.8125 -15.171875 C 5.226562 -15.171875 5.546875 -15.097656 5.765625 -14.953125 C 5.992188 -14.816406 6.15625 -14.644531 6.25 -14.4375 C 6.34375 -14.226562 6.390625 -14.023438 6.390625 -13.828125 C 6.390625 -13.453125 6.28125 -13.066406 6.0625 -12.671875 C 5.851562 -12.285156 5.582031 -11.882812 5.25 -11.46875 C 4.914062 -11.0625 4.5625 -10.632812 4.1875 -10.1875 C 3.8125 -9.75 3.457031 -9.285156 3.125 -8.796875 C 2.789062 -8.316406 2.515625 -7.8125 2.296875 -7.28125 C 2.085938 -6.75 1.984375 -6.1875 1.984375 -5.59375 C 1.984375 -5.257812 2.035156 -4.882812 2.140625 -4.46875 C 2.253906 -4.050781 2.410156 -3.625 2.609375 -3.1875 C 2.816406 -2.75 3.078125 -2.34375 3.390625 -1.96875 C 3.710938 -1.601562 4.082031 -1.3125 4.5 -1.09375 C 4.914062 -0.875 5.382812 -0.765625 5.90625 -0.765625 C 6.226562 -0.765625 6.539062 -0.816406 6.84375 -0.921875 C 7.144531 -1.023438 7.394531 -1.179688 7.59375 -1.390625 C 7.789062 -1.609375 7.890625 -1.875 7.890625 -2.1875 C 7.890625 -2.59375 7.800781 -2.9375 7.625 -3.21875 C 7.457031 -3.507812 7.242188 -3.773438 6.984375 -4.015625 C 6.734375 -4.265625 6.476562 -4.519531 6.21875 -4.78125 C 5.96875 -5.050781 5.753906 -5.363281 5.578125 -5.71875 C 5.410156 -6.082031 5.328125 -6.53125 5.328125 -7.0625 C 5.328125 -7.4375 5.421875 -7.789062 5.609375 -8.125 C 5.796875 -8.457031 6.046875 -8.726562 6.359375 -8.9375 C 6.671875 -9.144531 7.019531 -9.25 7.40625 -9.25 C 7.644531 -9.25 7.957031 -9.203125 8.34375 -9.109375 C 8.726562 -9.023438 9.113281 -8.90625 9.5 -8.75 C 9.882812 -8.601562 10.207031 -8.425781 10.46875 -8.21875 C 10.726562 -8.019531 10.859375 -7.804688 10.859375 -7.578125 C 10.859375 -7.285156 10.773438 -7.050781 10.609375 -6.875 C 10.453125 -6.707031 10.25 -6.570312 10 -6.46875 C 9.75 -6.363281 9.484375 -6.265625 9.203125 -6.171875 C 8.921875 -6.085938 8.65625 -6 8.40625 -5.90625 C 8.15625 -5.8125 7.945312 -5.679688 7.78125 -5.515625 C 7.625 -5.359375 7.546875 -5.144531 7.546875 -4.875 C 7.546875 -4.644531 7.628906 -4.445312 7.796875 -4.28125 C 7.960938 -4.125 8.171875 -3.976562 8.421875 -3.84375 C 8.679688 -3.707031 8.957031 -3.566406 9.25 -3.421875 C 9.539062 -3.273438 9.816406 -3.101562 10.078125 -2.90625 C 10.335938 -2.71875 10.550781 -2.488281 10.71875 -2.21875 C 10.882812 -1.957031 10.96875 -1.632812 10.96875 -1.25 C 10.96875 -0.90625 10.882812 -0.644531 10.71875 -0.46875 C 10.550781 -0.289062 10.332031 -0.171875 10.0625 -0.109375 C 9.789062 -0.046875 9.492188 -0.0078125 9.171875 0 C 8.847656 0 8.535156 0 8.234375 0 Z M 8.234375 0 "/></g></g></g><g fill="#ffffff" fill-opacity="1"><g transform="translate(22.32054, 16.419031)"><g><path d="M 0.375 -7.578125 C 0.375 -8.753906 0.515625 -9.820312 0.796875 -10.78125 C 1.085938 -11.738281 1.492188 -12.5625 2.015625 -13.25 C 2.546875 -13.945312 3.175781 -14.476562 3.90625 -14.84375 C 4.632812 -15.21875 5.453125 -15.40625 6.359375 -15.40625 C 7.242188 -15.40625 8.050781 -15.21875 8.78125 -14.84375 C 9.519531 -14.476562 10.148438 -13.945312 10.671875 -13.25 C 11.203125 -12.5625 11.609375 -11.738281 11.890625 -10.78125 C 12.171875 -9.820312 12.3125 -8.753906 12.3125 -7.578125 C 12.3125 -6.410156 12.171875 -5.347656 11.890625 -4.390625 C 11.609375 -3.429688 11.203125 -2.601562 10.671875 -1.90625 C 10.148438 -1.21875 9.519531 -0.6875 8.78125 -0.3125 C 8.050781 0.0507812 7.242188 0.234375 6.359375 0.234375 C 5.453125 0.234375 4.632812 0.0507812 3.90625 -0.3125 C 3.175781 -0.6875 2.546875 -1.21875 2.015625 -1.90625 C 1.492188 -2.601562 1.085938 -3.429688 0.796875 -4.390625 C 0.515625 -5.347656 0.375 -6.410156 0.375 -7.578125 Z M 5.125 -14.375 C 4.769531 -14.375 4.488281 -14.179688 4.28125 -13.796875 C 4.082031 -13.421875 3.945312 -12.90625 3.875 -12.25 C 3.8125 -11.601562 3.800781 -10.878906 3.84375 -10.078125 C 3.894531 -9.273438 3.988281 -8.441406 4.125 -7.578125 C 4.269531 -6.722656 4.445312 -5.894531 4.65625 -5.09375 C 4.875 -4.289062 5.125 -3.5625 5.40625 -2.90625 C 5.6875 -2.257812 5.984375 -1.742188 6.296875 -1.359375 C 6.617188 -0.984375 6.945312 -0.796875 7.28125 -0.796875 C 7.707031 -0.796875 8.046875 -0.984375 8.296875 -1.359375 C 8.546875 -1.742188 8.722656 -2.257812 8.828125 -2.90625 C 8.929688 -3.5625 8.96875 -4.289062 8.9375 -5.09375 C 8.90625 -5.894531 8.816406 -6.722656 8.671875 -7.578125 C 8.535156 -8.441406 8.347656 -9.273438 8.109375 -10.078125 C 7.867188 -10.878906 7.59375 -11.601562 7.28125 -12.25 C 6.976562 -12.90625 6.644531 -13.421875 6.28125 -13.796875 C 5.914062 -14.179688 5.53125 -14.375 5.125 -14.375 Z M 5.125 -14.375 "/></g></g></g><g fill="#ffffff" fill-opacity="1"><g transform="translate(35.016598, 16.419031)"><g><path d="M 0 -15.171875 L 6.265625 -15.171875 C 6.097656 -14.984375 5.960938 -14.738281 5.859375 -14.4375 C 5.765625 -14.132812 5.71875 -13.828125 5.71875 -13.515625 C 5.71875 -13.328125 5.742188 -12.992188 5.796875 -12.515625 C 5.859375 -12.035156 5.941406 -11.472656 6.046875 -10.828125 C 6.148438 -10.179688 6.269531 -9.5 6.40625 -8.78125 C 6.550781 -8.070312 6.707031 -7.375 6.875 -6.6875 C 7.039062 -6 7.21875 -5.375 7.40625 -4.8125 C 7.601562 -4.25 7.800781 -3.800781 8 -3.46875 C 8.207031 -3.132812 8.414062 -2.96875 8.625 -2.96875 C 8.882812 -2.96875 9.085938 -3.078125 9.234375 -3.296875 C 9.390625 -3.523438 9.5 -3.816406 9.5625 -4.171875 C 9.632812 -4.535156 9.671875 -4.921875 9.671875 -5.328125 C 9.671875 -5.929688 9.59375 -6.519531 9.4375 -7.09375 C 9.28125 -7.675781 9.09375 -8.238281 8.875 -8.78125 C 8.65625 -9.332031 8.429688 -9.875 8.203125 -10.40625 C 7.972656 -10.9375 7.78125 -11.460938 7.625 -11.984375 C 7.476562 -12.515625 7.40625 -13.039062 7.40625 -13.5625 C 7.40625 -13.800781 7.429688 -14.046875 7.484375 -14.296875 C 7.546875 -14.546875 7.660156 -14.753906 7.828125 -14.921875 C 7.992188 -15.085938 8.222656 -15.171875 8.515625 -15.171875 L 13.640625 -15.171875 C 13.328125 -14.921875 13.070312 -14.523438 12.875 -13.984375 C 12.6875 -13.441406 12.492188 -12.859375 12.296875 -12.234375 C 11.992188 -11.203125 11.726562 -10.257812 11.5 -9.40625 C 11.28125 -8.550781 11.082031 -7.722656 10.90625 -6.921875 C 10.726562 -6.117188 10.554688 -5.28125 10.390625 -4.40625 C 10.222656 -3.539062 10.039062 -2.582031 9.84375 -1.53125 C 9.789062 -1.238281 9.789062 -0.953125 9.84375 -0.671875 C 9.90625 -0.390625 10.019531 -0.164062 10.1875 0 L 3.453125 0 C 3.628906 -0.164062 3.742188 -0.390625 3.796875 -0.671875 C 3.847656 -0.953125 3.847656 -1.238281 3.796875 -1.53125 C 3.597656 -2.582031 3.414062 -3.539062 3.25 -4.40625 C 3.082031 -5.28125 2.910156 -6.117188 2.734375 -6.921875 C 2.554688 -7.722656 2.351562 -8.550781 2.125 -9.40625 C 1.90625 -10.257812 1.640625 -11.203125 1.328125 -12.234375 C 1.140625 -12.859375 0.945312 -13.441406 0.75 -13.984375 C 0.5625 -14.523438 0.3125 -14.921875 0 -15.171875 Z M 0 -15.171875 "/></g></g></g><g fill="#ffffff" fill-opacity="1"><g transform="translate(48.653107, 16.419031)"><g><path d="M 0.375 -7.578125 C 0.375 -8.328125 0.441406 -9.078125 0.578125 -9.828125 C 0.722656 -10.578125 0.941406 -11.285156 1.234375 -11.953125 C 1.535156 -12.617188 1.898438 -13.207031 2.328125 -13.71875 C 2.765625 -14.238281 3.28125 -14.648438 3.875 -14.953125 C 4.46875 -15.253906 5.140625 -15.40625 5.890625 -15.40625 C 6.285156 -15.40625 6.660156 -15.351562 7.015625 -15.25 C 7.378906 -15.144531 7.75 -15.039062 8.125 -14.9375 C 8.5 -14.84375 8.914062 -14.796875 9.375 -14.796875 C 9.726562 -14.796875 10.007812 -14.84375 10.21875 -14.9375 C 10.425781 -15.039062 10.601562 -15.144531 10.75 -15.25 C 10.894531 -15.351562 11.046875 -15.40625 11.203125 -15.40625 C 11.398438 -15.40625 11.515625 -15.289062 11.546875 -15.0625 C 11.578125 -14.832031 11.550781 -14.546875 11.46875 -14.203125 C 11.394531 -13.867188 11.289062 -13.535156 11.15625 -13.203125 C 11.050781 -12.960938 10.898438 -12.679688 10.703125 -12.359375 C 10.515625 -12.046875 10.28125 -11.773438 10 -11.546875 C 9.71875 -11.316406 9.394531 -11.203125 9.03125 -11.203125 C 8.488281 -11.203125 8.007812 -11.257812 7.59375 -11.375 C 7.175781 -11.5 6.789062 -11.648438 6.4375 -11.828125 C 6.09375 -12.015625 5.757812 -12.195312 5.4375 -12.375 C 5.125 -12.5625 4.796875 -12.710938 4.453125 -12.828125 C 4.117188 -12.953125 3.757812 -13.015625 3.375 -13.015625 C 3.113281 -13.015625 2.898438 -12.945312 2.734375 -12.8125 C 2.578125 -12.675781 2.453125 -12.503906 2.359375 -12.296875 C 2.273438 -12.097656 2.210938 -11.894531 2.171875 -11.6875 C 2.140625 -11.488281 2.125 -11.320312 2.125 -11.1875 C 2.125 -11.113281 2.117188 -10.984375 2.109375 -10.796875 C 2.109375 -10.609375 2.109375 -10.410156 2.109375 -10.203125 C 2.117188 -9.992188 2.144531 -9.816406 2.1875 -9.671875 C 2.238281 -9.523438 2.3125 -9.453125 2.40625 -9.453125 C 2.5625 -9.453125 2.71875 -9.515625 2.875 -9.640625 C 3.03125 -9.773438 3.238281 -9.90625 3.5 -10.03125 C 3.769531 -10.164062 4.125 -10.234375 4.5625 -10.234375 C 4.9375 -10.234375 5.300781 -10.171875 5.65625 -10.046875 C 6.007812 -9.921875 6.351562 -9.773438 6.6875 -9.609375 C 7.019531 -9.453125 7.34375 -9.3125 7.65625 -9.1875 C 7.976562 -9.0625 8.289062 -9 8.59375 -9 C 8.820312 -9 9 -9.046875 9.125 -9.140625 C 9.257812 -9.242188 9.367188 -9.34375 9.453125 -9.4375 C 9.535156 -9.539062 9.613281 -9.59375 9.6875 -9.59375 C 9.8125 -9.59375 9.90625 -9.507812 9.96875 -9.34375 C 10.039062 -9.175781 10.078125 -8.96875 10.078125 -8.71875 C 10.078125 -8.46875 10.023438 -8.195312 9.921875 -7.90625 C 9.828125 -7.613281 9.675781 -7.332031 9.46875 -7.0625 C 9.257812 -6.800781 8.988281 -6.585938 8.65625 -6.421875 C 8.332031 -6.253906 7.941406 -6.171875 7.484375 -6.171875 C 7.035156 -6.171875 6.628906 -6.265625 6.265625 -6.453125 C 5.898438 -6.640625 5.566406 -6.867188 5.265625 -7.140625 C 4.972656 -7.421875 4.695312 -7.691406 4.4375 -7.953125 C 4.175781 -8.222656 3.925781 -8.453125 3.6875 -8.640625 C 3.445312 -8.828125 3.195312 -8.921875 2.9375 -8.921875 C 2.78125 -8.921875 2.675781 -8.867188 2.625 -8.765625 C 2.570312 -8.671875 2.550781 -8.554688 2.5625 -8.421875 C 2.570312 -8.285156 2.59375 -8.171875 2.625 -8.078125 C 2.925781 -7.140625 3.34375 -6.3125 3.875 -5.59375 C 4.40625 -4.882812 5.003906 -4.328125 5.671875 -3.921875 C 6.335938 -3.523438 7.019531 -3.328125 7.71875 -3.328125 C 8.257812 -3.328125 8.703125 -3.398438 9.046875 -3.546875 C 9.390625 -3.703125 9.664062 -3.890625 9.875 -4.109375 C 10.09375 -4.335938 10.269531 -4.5625 10.40625 -4.78125 C 10.550781 -5 10.679688 -5.179688 10.796875 -5.328125 C 10.910156 -5.484375 11.046875 -5.5625 11.203125 -5.5625 C 11.285156 -5.5625 11.367188 -5.515625 11.453125 -5.421875 C 11.535156 -5.328125 11.578125 -5.101562 11.578125 -4.75 C 11.578125 -4.226562 11.460938 -3.679688 11.234375 -3.109375 C 11.015625 -2.535156 10.691406 -1.992188 10.265625 -1.484375 C 9.835938 -0.984375 9.304688 -0.570312 8.671875 -0.25 C 8.046875 0.0703125 7.332031 0.234375 6.53125 0.234375 C 5.675781 0.234375 4.875 0.0703125 4.125 -0.25 C 3.382812 -0.582031 2.734375 -1.070312 2.171875 -1.71875 C 1.609375 -2.363281 1.164062 -3.175781 0.84375 -4.15625 C 0.53125 -5.132812 0.375 -6.273438 0.375 -7.578125 Z M 0.375 -7.578125 "/></g></g></g><g fill="#ffffff" fill-opacity="1"><g transform="translate(60.530065, 16.419031)"><g/></g></g><g fill="#ffffff" fill-opacity="1"><g transform="translate(65.839052, 16.419031)"><g><path d="M 0 -15.171875 L 4.078125 -15.171875 C 4.566406 -15.171875 4.953125 -15.035156 5.234375 -14.765625 C 5.523438 -14.503906 5.734375 -14.171875 5.859375 -13.765625 C 5.984375 -13.367188 6.046875 -12.96875 6.046875 -12.5625 C 6.046875 -12.070312 5.972656 -11.640625 5.828125 -11.265625 C 5.691406 -10.890625 5.53125 -10.53125 5.34375 -10.1875 C 5.15625 -9.84375 4.988281 -9.484375 4.84375 -9.109375 C 4.707031 -8.742188 4.640625 -8.316406 4.640625 -7.828125 C 4.640625 -7.453125 4.789062 -7.101562 5.09375 -6.78125 C 5.394531 -6.457031 5.863281 -6.300781 6.5 -6.3125 C 6.988281 -6.3125 7.382812 -6.394531 7.6875 -6.5625 C 7.988281 -6.726562 8.21875 -6.9375 8.375 -7.1875 C 8.539062 -7.445312 8.648438 -7.710938 8.703125 -7.984375 C 8.765625 -8.265625 8.796875 -8.523438 8.796875 -8.765625 C 8.796875 -9.160156 8.71875 -9.554688 8.5625 -9.953125 C 8.414062 -10.359375 8.226562 -10.757812 8 -11.15625 C 7.78125 -11.550781 7.5625 -11.929688 7.34375 -12.296875 C 7.125 -12.671875 6.9375 -13.023438 6.78125 -13.359375 C 6.625 -13.703125 6.546875 -14.019531 6.546875 -14.3125 C 6.546875 -14.539062 6.628906 -14.738281 6.796875 -14.90625 C 6.960938 -15.082031 7.164062 -15.171875 7.40625 -15.171875 L 10.9375 -15.171875 C 11.269531 -15.171875 11.519531 -15.046875 11.6875 -14.796875 C 11.863281 -14.554688 11.984375 -14.265625 12.046875 -13.921875 C 12.109375 -13.578125 12.140625 -13.25 12.140625 -12.9375 C 12.140625 -12.175781 12.023438 -11.472656 11.796875 -10.828125 C 11.578125 -10.179688 11.289062 -9.582031 10.9375 -9.03125 C 10.582031 -8.476562 10.207031 -7.960938 9.8125 -7.484375 C 9.414062 -7.015625 9.039062 -6.570312 8.6875 -6.15625 C 8.332031 -5.738281 8.046875 -5.347656 7.828125 -4.984375 C 7.609375 -4.628906 7.5 -4.28125 7.5 -3.9375 C 7.5 -3.375 7.570312 -2.90625 7.71875 -2.53125 C 7.875 -2.164062 8.046875 -1.859375 8.234375 -1.609375 C 8.429688 -1.367188 8.601562 -1.15625 8.75 -0.96875 C 8.90625 -0.789062 8.984375 -0.609375 8.984375 -0.421875 C 8.984375 -0.304688 8.921875 -0.207031 8.796875 -0.125 C 8.679688 -0.0390625 8.476562 0 8.1875 0 L 4.5 0 C 4.289062 0 4.113281 -0.0703125 3.96875 -0.21875 C 3.832031 -0.375 3.726562 -0.566406 3.65625 -0.796875 C 3.59375 -1.023438 3.5625 -1.242188 3.5625 -1.453125 C 3.5625 -1.847656 3.675781 -2.203125 3.90625 -2.515625 C 4.144531 -2.835938 4.4375 -3.128906 4.78125 -3.390625 C 5.125 -3.660156 5.46875 -3.90625 5.8125 -4.125 C 6.15625 -4.34375 6.441406 -4.546875 6.671875 -4.734375 C 6.910156 -4.929688 7.03125 -5.125 7.03125 -5.3125 C 7.03125 -5.457031 6.960938 -5.53125 6.828125 -5.53125 C 6.691406 -5.53125 6.5625 -5.5 6.4375 -5.4375 C 6.320312 -5.382812 6.160156 -5.320312 5.953125 -5.25 C 5.753906 -5.1875 5.472656 -5.15625 5.109375 -5.15625 C 4.535156 -5.15625 4.0625 -5.253906 3.6875 -5.453125 C 3.320312 -5.660156 3.03125 -5.929688 2.8125 -6.265625 C 2.59375 -6.609375 2.429688 -6.984375 2.328125 -7.390625 C 2.222656 -7.804688 2.148438 -8.21875 2.109375 -8.625 C 2.054688 -9.125 1.992188 -9.679688 1.921875 -10.296875 C 1.859375 -10.910156 1.757812 -11.523438 1.625 -12.140625 C 1.488281 -12.753906 1.289062 -13.328125 1.03125 -13.859375 C 0.78125 -14.390625 0.4375 -14.828125 0 -15.171875 Z M 0 -15.171875 "/></g></g></g><g fill="#ffffff" fill-opacity="1"><g transform="translate(78.277246, 16.419031)"><g><path d="M 0.375 -7.578125 C 0.375 -8.753906 0.515625 -9.820312 0.796875 -10.78125 C 1.085938 -11.738281 1.492188 -12.5625 2.015625 -13.25 C 2.546875 -13.945312 3.175781 -14.476562 3.90625 -14.84375 C 4.632812 -15.21875 5.453125 -15.40625 6.359375 -15.40625 C 7.242188 -15.40625 8.050781 -15.21875 8.78125 -14.84375 C 9.519531 -14.476562 10.148438 -13.945312 10.671875 -13.25 C 11.203125 -12.5625 11.609375 -11.738281 11.890625 -10.78125 C 12.171875 -9.820312 12.3125 -8.753906 12.3125 -7.578125 C 12.3125 -6.410156 12.171875 -5.347656 11.890625 -4.390625 C 11.609375 -3.429688 11.203125 -2.601562 10.671875 -1.90625 C 10.148438 -1.21875 9.519531 -0.6875 8.78125 -0.3125 C 8.050781 0.0507812 7.242188 0.234375 6.359375 0.234375 C 5.453125 0.234375 4.632812 0.0507812 3.90625 -0.3125 C 3.175781 -0.6875 2.546875 -1.21875 2.015625 -1.90625 C 1.492188 -2.601562 1.085938 -3.429688 0.796875 -4.390625 C 0.515625 -5.347656 0.375 -6.410156 0.375 -7.578125 Z M 5.125 -14.375 C 4.769531 -14.375 4.488281 -14.179688 4.28125 -13.796875 C 4.082031 -13.421875 3.945312 -12.90625 3.875 -12.25 C 3.8125 -11.601562 3.800781 -10.878906 3.84375 -10.078125 C 3.894531 -9.273438 3.988281 -8.441406 4.125 -7.578125 C 4.269531 -6.722656 4.445312 -5.894531 4.65625 -5.09375 C 4.875 -4.289062 5.125 -3.5625 5.40625 -2.90625 C 5.6875 -2.257812 5.984375 -1.742188 6.296875 -1.359375 C 6.617188 -0.984375 6.945312 -0.796875 7.28125 -0.796875 C 7.707031 -0.796875 8.046875 -0.984375 8.296875 -1.359375 C 8.546875 -1.742188 8.722656 -2.257812 8.828125 -2.90625 C 8.929688 -3.5625 8.96875 -4.289062 8.9375 -5.09375 C 8.90625 -5.894531 8.816406 -6.722656 8.671875 -7.578125 C 8.535156 -8.441406 8.347656 -9.273438 8.109375 -10.078125 C 7.867188 -10.878906 7.59375 -11.601562 7.28125 -12.25 C 6.976562 -12.90625 6.644531 -13.421875 6.28125 -13.796875 C 5.914062 -14.179688 5.53125 -14.375 5.125 -14.375 Z M 5.125 -14.375 "/></g></g></g><g clip-path="url(#2f26fc75aa)"><g fill="#ffffff" fill-opacity="1"><g transform="translate(90.973305, 16.419031)"><g><path d="M 0.78125 -13.375 C 0.78125 -13.8125 0.738281 -14.171875 0.65625 -14.453125 C 0.582031 -14.734375 0.414062 -14.972656 0.15625 -15.171875 L 4.671875 -15.171875 C 4.878906 -15.171875 5.054688 -15.097656 5.203125 -14.953125 C 5.347656 -14.816406 5.457031 -14.644531 5.53125 -14.4375 C 5.601562 -14.238281 5.640625 -14.046875 5.640625 -13.859375 C 5.640625 -13.296875 5.539062 -12.769531 5.34375 -12.28125 C 5.144531 -11.800781 4.890625 -11.34375 4.578125 -10.90625 C 4.265625 -10.46875 3.929688 -10.046875 3.578125 -9.640625 C 3.234375 -9.234375 2.90625 -8.820312 2.59375 -8.40625 C 2.28125 -8 2.023438 -7.578125 1.828125 -7.140625 C 1.628906 -6.703125 1.53125 -6.234375 1.53125 -5.734375 C 1.53125 -5.242188 1.640625 -4.832031 1.859375 -4.5 C 2.078125 -4.164062 2.359375 -3.894531 2.703125 -3.6875 C 3.054688 -3.488281 3.4375 -3.335938 3.84375 -3.234375 C 4.25 -3.140625 4.644531 -3.09375 5.03125 -3.09375 C 5.539062 -3.09375 6.003906 -3.203125 6.421875 -3.421875 C 6.835938 -3.640625 7.164062 -3.957031 7.40625 -4.375 C 7.65625 -4.789062 7.78125 -5.3125 7.78125 -5.9375 L 7.78125 -13.375 C 7.78125 -13.8125 7.738281 -14.171875 7.65625 -14.453125 C 7.582031 -14.734375 7.410156 -14.972656 7.140625 -15.171875 L 12.359375 -15.171875 C 12.109375 -14.972656 11.941406 -14.734375 11.859375 -14.453125 C 11.773438 -14.171875 11.734375 -13.8125 11.734375 -13.375 L 11.734375 -5.59375 C 11.734375 -4.664062 11.613281 -3.867188 11.375 -3.203125 C 11.144531 -2.535156 10.832031 -1.976562 10.4375 -1.53125 C 10.039062 -1.082031 9.601562 -0.726562 9.125 -0.46875 C 8.644531 -0.21875 8.15625 -0.0390625 7.65625 0.0625 C 7.15625 0.175781 6.679688 0.234375 6.234375 0.234375 C 5.785156 0.234375 5.3125 0.175781 4.8125 0.0625 C 4.320312 -0.0390625 3.835938 -0.21875 3.359375 -0.46875 C 2.890625 -0.726562 2.457031 -1.082031 2.0625 -1.53125 C 1.675781 -1.976562 1.363281 -2.535156 1.125 -3.203125 C 0.894531 -3.867188 0.78125 -4.664062 0.78125 -5.59375 Z M 0.78125 -13.375 "/></g></g></g></g></g></g></svg>